<svg xmlns="http://www.w3.org/2000/svg" viewBox="0 0 35 35">
  <defs>
    <style>
      .cls-1 {
        fill: #707070;
      }
    </style>
  </defs>
  <path id="定位" class="cls-1" d="M80.869,79.779a1.944,1.944,0,1,0,1.945,1.944A1.947,1.947,0,0,0,80.869,79.779Zm16.41.864H95.747a14.9,14.9,0,0,0-13.8-13.789V65.3a1.081,1.081,0,0,0-2.161,0v1.551a14.9,14.9,0,0,0-13.8,13.789H64.441a1.08,1.08,0,1,0,0,2.161h1.552a14.9,14.9,0,0,0,13.8,13.789v1.551a1.081,1.081,0,0,0,2.161,0V96.592A14.9,14.9,0,0,0,95.746,82.8h1.533a1.08,1.08,0,1,0,0-2.161ZM88.631,82.8h4.946A12.777,12.777,0,0,1,81.95,94.424V89.5a1.081,1.081,0,0,0-2.161,0v4.923A12.776,12.776,0,0,1,68.161,82.8h4.926a1.08,1.08,0,1,0,0-2.161H68.161A12.776,12.776,0,0,1,79.789,69.022v4.923a1.081,1.081,0,0,0,2.161,0V69.022A12.776,12.776,0,0,1,93.578,80.643H88.631a1.08,1.08,0,1,0,0,2.161Z" transform="translate(-63.36 -64.223)"/>
</svg>
