<svg xmlns="http://www.w3.org/2000/svg" viewBox="0 0 35 35">
  <defs>
    <style>
      .cls-1 {
        fill: #707070;
      }
    </style>
  </defs>
  <path id="我_的_1_" data-name="我 的 (1)" class="cls-1" d="M42.166,75.025a1.352,1.352,0,1,1-2.7,0v-.78c0-3.616-6.869-8.736-14.749-8.736-6.265,0-14.855,4.3-14.855,8.583v.933a1.4,1.4,0,0,1-1.349,1.446,1.4,1.4,0,0,1-1.349-1.446V73.217c0-2.17,3-7.727,11.182-9.782a12.3,12.3,0,0,1-4.9-9.935c0-6.642,5.023-12.028,11.217-12.028S35.883,46.858,35.883,53.5a12.3,12.3,0,0,1-4.757,9.821c8.271,1.979,11.04,7.822,11.04,9.9ZM33.185,53.481c0-5.043-3.816-9.135-8.519-9.135s-8.519,4.092-8.519,9.135,3.816,9.135,8.519,9.135S33.185,58.525,33.185,53.481Z" transform="translate(-7.166 -41.472)"/>
</svg>
