<svg xmlns="http://www.w3.org/2000/svg" viewBox="0 0 24 24">
  <defs>
    <style>
      .cls-1 {
        fill: #ffaa02;
      }
    </style>
  </defs>
  <path id="我_的_1_" data-name="我 的 (1)" class="cls-1" d="M31.166,64.48a.927.927,0,1,1-1.85,0v-.535c0-2.48-4.71-5.99-10.114-5.99-4.3,0-10.187,2.949-10.187,5.886v.639a.927.927,0,1,1-1.85,0V63.24c0-1.488,2.057-5.3,7.667-6.708a8.436,8.436,0,0,1-3.359-6.812,7.985,7.985,0,0,1,7.692-8.248,7.985,7.985,0,0,1,7.692,8.248A8.434,8.434,0,0,1,23.6,56.454c5.671,1.357,7.57,5.364,7.57,6.786ZM25.008,49.707a6.066,6.066,0,0,0-5.842-6.264,6.28,6.28,0,0,0,0,12.529A6.066,6.066,0,0,0,25.008,49.707Z" transform="translate(-7.166 -41.472)"/>
</svg>
