<svg xmlns="http://www.w3.org/2000/svg" viewBox="0 0 29.683 35.801">
  <defs>
    <style>
      .cls-1 {
        fill: #707070;
        stroke: #707070;
        stroke-width: 0.8px;
      }
    </style>
  </defs>
  <g id="账号安全" transform="translate(-89.2 -0.112)">
    <path id="路径_77" data-name="路径 77" class="cls-1" d="M117.362,5.171a1.183,1.183,0,0,0-.245.035,10.309,10.309,0,0,1-2.014.21,12.2,12.2,0,0,1-3.8-.648A17.669,17.669,0,0,1,104.873.81a1.074,1.074,0,0,0-.753-.3A1.128,1.128,0,0,0,103.3.88a14.316,14.316,0,0,1-6.463,3.906,14.552,14.552,0,0,1-4.046.631,9.57,9.57,0,0,1-1.874-.175A1.071,1.071,0,0,0,90,5.469a1.145,1.145,0,0,0-.4.858V18.886c0,7.882,6.13,14.363,14.117,16.587a1.352,1.352,0,0,0,.648,0c7.864-2.259,14.117-8.705,14.117-16.587V6.275a1.114,1.114,0,0,0-.333-.788,1.176,1.176,0,0,0-.788-.315Zm-.315,13.679c0,6.708-5.342,12.944-13.014,15.168-7.777-2.189-13-8.267-13-15.168V6.695a11.036,11.036,0,0,0,1.734.14,16.094,16.094,0,0,0,4.449-.683A15.874,15.874,0,0,0,104.1,2.071a19.019,19.019,0,0,0,6.726,4.046,13.651,13.651,0,0,0,4.256.718,9.789,9.789,0,0,0,1.944-.175V18.851Zm0,0" transform="translate(0)"/>
    <path id="路径_78" data-name="路径 78" class="cls-1" d="M341.9,355.41l-6.278,6.964-3.111-2.774a.577.577,0,0,0-.771.855l3.545,3.167a.576.576,0,0,0,.813-.042l6.67-7.4a.576.576,0,0,0-.042-.813A.607.607,0,0,0,341.9,355.41Zm0,0" transform="translate(-232.11 -341.513)"/>
  </g>
</svg>
