<svg xmlns="http://www.w3.org/2000/svg" viewBox="0 0 23 32">
  <defs>
    <style>
      .cls-1, .cls-2 {
        fill: #fff;
      }

      .cls-2 {
        stroke: #707070;
        stroke-width: 2px;
      }

      .cls-3, .cls-4 {
        stroke: none;
      }

      .cls-4 {
        fill: #707070;
      }

      .cls-5 {
        fill: none;
      }
    </style>
  </defs>
  <g id="组_69" data-name="组 69" transform="translate(-370 -207)">
    <g id="组_70" data-name="组 70" transform="translate(32 -9)">
      <g id="路径_62" data-name="路径 62" class="cls-1" transform="translate(338 216)">
        <path class="cls-3" d="M 11.5 30.39756965637207 C 10.45651817321777 29.07070350646973 8.50471019744873 26.519775390625 6.5725998878479 23.62763977050781 C 2.9269700050354 18.17057991027832 1 14.00856971740723 1 11.59158039093018 C 1 5.751359939575195 5.710279941558838 1 11.5 1 C 17.28972053527832 1 22 5.751359939575195 22 11.59158039093018 C 22 14.00856971740723 20.07303047180176 18.17057991027832 16.42740058898926 23.62763977050781 C 14.49528980255127 26.519775390625 12.54348182678223 29.07070350646973 11.5 30.39756965637207 Z"/>
        <path class="cls-4" d="M 11.5 2 C 6.261680603027344 2 2 6.302759170532227 2 11.59157943725586 C 2 12.85692977905273 2.700939178466797 16.02931976318359 7.395359992980957 23.05902099609375 C 8.899456977844238 25.31135177612305 10.41685581207275 27.35616493225098 11.49999904632568 28.76740074157715 C 12.58316612243652 27.35613632202148 14.10054302215576 25.31135177612305 15.60464000701904 23.05902099609375 C 20.2990608215332 16.02931976318359 21 12.85692977905273 21 11.59157943725586 C 21 6.302759170532227 16.73831939697266 2 11.5 2 M 11.5 0 C 17.85127067565918 0 23 5.189729690551758 23 11.59157943725586 C 23 17.99343109130859 11.5 32 11.5 32 C 11.5 32 0 17.99343109130859 0 11.59157943725586 C 0 5.189729690551758 5.14872932434082 0 11.5 0 Z"/>
      </g>
      <g id="椭圆_2" data-name="椭圆 2" class="cls-2" transform="translate(344 223)">
        <circle class="cls-3" cx="5.5" cy="5.5" r="5.5"/>
        <circle class="cls-5" cx="5.5" cy="5.5" r="4.5"/>
      </g>
    </g>
  </g>
</svg>
