<svg xmlns="http://www.w3.org/2000/svg" viewBox="0 0 35 35">
  <defs>
    <style>
      .cls-1 {
        fill: #707070;
      }
    </style>
  </defs>
  <path id="图标制作模版-图形" class="cls-1" d="M54.809,34.015a3.249,3.249,0,0,0-3.2-3.3,3.1,3.1,0,0,0-1,.167l-10.111-7.5c.008-.091.014-.183.014-.275a3.2,3.2,0,1,0-6.4,0c0,.07,0,.14.007.209l-9.936,7.632a3.076,3.076,0,0,0-1.172-.231,3.249,3.249,0,0,0-3.2,3.3A3.284,3.284,0,0,0,22.184,37.2l3.777,11.744a3.329,3.329,0,0,0-1.188,2.563,3.249,3.249,0,0,0,3.2,3.3,3.173,3.173,0,0,0,2.7-1.524l13.022-.111a3.182,3.182,0,0,0,2.762,1.636,3.25,3.25,0,0,0,3.2-3.3,3.337,3.337,0,0,0-.9-2.287l3.65-12.014a3.285,3.285,0,0,0,2.4-3.2ZM24.246,37.057a3.3,3.3,0,0,0,1.962-3.042,3.351,3.351,0,0,0-.46-1.7L34.9,25.282a3.133,3.133,0,0,0,4.777.038l9.263,6.874a3.369,3.369,0,0,0-.533,1.822,3.306,3.306,0,0,0,1.948,3.039l-3.4,11.2a3.1,3.1,0,0,0-.5-.041,3.235,3.235,0,0,0-3.175,2.9l-12.12.1a3.239,3.239,0,0,0-3.184-3.006c-.046,0-.094,0-.142,0l-3.585-11.16Zm0,0" transform="translate(-19.809 -19.81)"/>
</svg>
