<svg xmlns="http://www.w3.org/2000/svg" viewBox="0 0 28.659 36.025">
  <defs>
    <style>
      .cls-1 {
        fill: #707070;
        stroke: #707070;
      }
    </style>
  </defs>
  <path id="个人信息" class="cls-1" d="M73.191,34.994a.649.649,0,0,1-.159-.029.123.123,0,0,1-.042-.024l-.005,0,.066-.154a1.149,1.149,0,0,0,.159.041ZM89.125,24.67a.75.75,0,0,1,0-1.494H99.478a.75.75,0,0,1,0,1.494Zm0,5.055a.748.748,0,0,1,0-1.491H99.478a.658.658,0,0,1,.49.222.765.765,0,0,1,.2.525.718.718,0,0,1-.686.744H89.125Zm0,5.121a.749.749,0,0,1,0-1.492H99.478a.658.658,0,0,1,.489.222.767.767,0,0,1,.2.526.718.718,0,0,1-.686.744ZM73.27,35c-.028,0-.055,0-.081,0h-.007A1.058,1.058,0,0,1,73,34.948a.808.808,0,0,1-.478-.525l-.006-.02,0-.021c.061-.424.124-.8.194-1.139A18.233,18.233,0,0,1,82.7,20.177a9.72,9.72,0,0,1-4.58-3.628,10.875,10.875,0,0,1-1.885-6.184,10.765,10.765,0,0,1,2.793-7.328,9.01,9.01,0,0,1,13.489,0,10.765,10.765,0,0,1,2.793,7.329,10.888,10.888,0,0,1-2.289,6.729,9.4,9.4,0,0,1-5.678,3.483,8.332,8.332,0,0,1-1.62.207c-.392.084-.717.161-.916.217-.026.007-.056.017-.089.029l-.03.011-.018.007-.007,0-.008,0A16.532,16.532,0,0,0,74.066,33.881c-.045.242-.1.529-.137.826l0,.034-.025.021A.969.969,0,0,1,73.27,35ZM85.775,1.492c-4.5,0-8.166,3.981-8.166,8.873s3.663,8.871,8.166,8.871,8.166-3.979,8.166-8.871S90.278,1.492,85.775,1.492Z" transform="translate(-72.006 0.5)"/>
</svg>
