<svg xmlns="http://www.w3.org/2000/svg" viewBox="0 0 22.581 35">
  <defs>
    <style>
      .cls-1 {
        fill: #707070;
      }
    </style>
  </defs>
  <path id="使用帮助" class="cls-1" d="M181.677,11.29a14.932,14.932,0,0,1,.841-4.907,8.9,8.9,0,0,1,2.47-3.394A11.286,11.286,0,0,1,188.869.727,13.681,13.681,0,0,1,193.293,0a11.459,11.459,0,0,1,7.9,2.72,9.269,9.269,0,0,1,3.067,7.3,8.121,8.121,0,0,1-.923,3.986,21.171,21.171,0,0,1-4.017,4.525,21.687,21.687,0,0,0-4.125,4.686,11.952,11.952,0,0,0-.76,5.01h-3.745a15.117,15.117,0,0,1,1.031-5.36,19.185,19.185,0,0,1,4.044-5.36,30.79,30.79,0,0,0,3.908-4.5,6.377,6.377,0,0,0,.787-3.313,6.288,6.288,0,0,0-1.981-4.848,7.567,7.567,0,0,0-5.347-1.831c-4.849,0-7.632,2.635-8.066,8.274ZM195.225,35h-4.516V30.484h4.516Z" transform="translate(-181.677)"/>
</svg>
