<svg xmlns="http://www.w3.org/2000/svg" viewBox="0 0 24 24">
  <defs>
    <style>
      .cls-1 {
        fill: #fa0;
      }
    </style>
  </defs>
  <path id="图标制作模版-图形" class="cls-1" d="M43.809,29.551a2.228,2.228,0,0,0-2.194-2.261,2.126,2.126,0,0,0-.689.115L33.993,22.26C34,22.2,34,22.135,34,22.072a2.195,2.195,0,1,0-4.387,0c0,.048,0,.1,0,.143l-6.813,5.234a2.109,2.109,0,0,0-.8-.158,2.228,2.228,0,0,0-2.194,2.261,2.252,2.252,0,0,0,1.629,2.187l2.59,8.053a2.283,2.283,0,0,0-.815,1.758,2.228,2.228,0,0,0,2.193,2.262,2.176,2.176,0,0,0,1.849-1.045l8.93-.076a2.182,2.182,0,0,0,1.894,1.122,2.228,2.228,0,0,0,2.194-2.262,2.288,2.288,0,0,0-.614-1.568l2.5-8.238a2.253,2.253,0,0,0,1.648-2.191ZM22.851,31.637A2.262,2.262,0,0,0,24.2,29.551a2.3,2.3,0,0,0-.315-1.165l6.279-4.823a2.148,2.148,0,0,0,3.275.026L39.787,28.3a2.31,2.31,0,0,0-.366,1.249,2.267,2.267,0,0,0,1.336,2.084l-2.334,7.68a2.128,2.128,0,0,0-.345-.028A2.218,2.218,0,0,0,35.9,41.278l-8.311.07a2.221,2.221,0,0,0-2.183-2.061l-.1,0-2.459-7.652Zm0,0" transform="translate(-19.809 -19.81)"/>
</svg>
